<svg width="274" height="37" viewBox="0 0 274 37" fill="none" xmlns="http://www.w3.org/2000/svg">
<path fill-rule="evenodd" clip-rule="evenodd" d="M72.9897 27.2951C73.8151 26.8014 74.4649 26.1271 74.9414 25.2726C75.4174 24.4191 75.6546 23.4622 75.6546 22.401C75.6546 22.0956 75.6465 21.8713 75.6282 21.7275C75.6095 21.6915 75.6011 21.6463 75.6011 21.5927C75.4207 20.1906 74.8343 19.0398 73.8367 18.1412C72.8409 17.2427 71.6344 16.7934 70.216 16.7934C69.1934 16.7934 68.2643 17.036 67.4305 17.5213C66.5949 18.0065 65.94 18.6761 65.4653 19.5295C64.9892 20.3836 64.7517 21.3409 64.7517 22.401C64.7517 23.4622 64.9892 24.4191 65.4653 25.2726C65.94 26.1271 66.5949 26.8014 67.4305 27.2951C68.2643 27.7895 69.1934 28.0365 70.216 28.0365C71.2404 28.0365 72.1643 27.7895 72.9897 27.2951ZM77.7015 16.0651V22.401C77.7015 23.8032 77.3742 25.0802 76.7193 26.2299C76.0625 27.3802 75.1653 28.2839 74.0255 28.9399C72.886 29.5962 71.616 29.924 70.216 29.924C68.8174 29.924 67.5456 29.5962 66.4062 28.9399C65.2667 28.2839 64.3691 27.3802 63.7142 26.2299C63.0592 25.0802 62.7319 23.8032 62.7319 22.401C62.7319 20.9996 63.0508 19.7277 63.6878 18.5865C64.324 17.4453 65.1949 16.5464 66.2991 15.8897C67.4038 15.2337 68.6371 14.9056 70.0005 14.9056C71.1682 14.9056 72.2362 15.1522 73.2052 15.647C74.1743 16.1415 74.9732 16.8198 75.6011 17.6828V9.78247C75.6011 9.47708 75.7 9.22564 75.8972 9.02742C76.0944 8.82994 76.3447 8.73047 76.6507 8.73047C76.9564 8.73047 77.2038 8.82994 77.3907 9.02742C77.5795 9.22564 77.6748 9.47708 77.6748 9.78247V15.8229C77.6916 15.8761 77.7015 15.9572 77.7015 16.0651Z" fill="#173753"/>
<path fill-rule="evenodd" clip-rule="evenodd" d="M82.8747 29.4931C82.6776 29.2949 82.579 29.0438 82.579 28.7373V16.092C82.579 15.7866 82.6776 15.5348 82.8747 15.3365C83.0719 15.1391 83.3244 15.0403 83.6301 15.0403C83.9343 15.0403 84.1813 15.1391 84.3704 15.3365C84.5574 15.5348 84.6527 15.7866 84.6527 16.092V28.7373C84.6527 29.0438 84.5574 29.2949 84.3704 29.4931C84.1813 29.6906 83.9343 29.7893 83.6301 29.7893C83.3244 29.7893 83.0719 29.6906 82.8747 29.4931ZM82.5658 11.8047C82.2865 11.5176 82.1479 11.1671 82.1479 10.7526C82.1479 10.3217 82.2916 9.97117 82.579 9.70101C82.8663 9.43159 83.2156 9.29688 83.6301 9.29688C84.0245 9.29688 84.3649 9.43159 84.6527 9.70101C84.94 9.97117 85.0837 10.3217 85.0837 10.7526C85.0837 11.1671 84.94 11.5176 84.6527 11.8047C84.3649 12.0924 84.0142 12.2363 83.6015 12.2363C83.1888 12.2363 82.8447 12.0924 82.5658 11.8047Z" fill="#173753"/>
<path fill-rule="evenodd" clip-rule="evenodd" d="M99.1498 27.3218C99.9751 26.8457 100.622 26.1806 101.088 25.3272C101.554 24.4738 101.788 23.5073 101.788 22.4285C101.788 21.3501 101.554 20.3836 101.088 19.5294C100.622 18.676 99.9751 18.0065 99.1498 17.5212C98.3244 17.036 97.3902 16.7933 96.3493 16.7933C95.2897 16.7933 94.3493 17.036 93.5235 17.5212C92.6967 18.0065 92.0516 18.676 91.5836 19.5294C91.1174 20.3836 90.8854 21.3501 90.8854 22.4285C90.8854 23.5073 91.1174 24.4738 91.5836 25.3272C92.0516 26.1806 92.6967 26.8457 93.5235 27.3218C94.3493 27.7986 95.2897 28.0365 96.3493 28.0365C97.3902 28.0365 98.3244 27.7986 99.1498 27.3218ZM100.199 15.8628C101.33 16.5011 102.219 17.3905 102.866 18.5321C103.511 19.6744 103.835 20.972 103.835 22.4285V27.9286C103.835 29.3667 103.516 30.6698 102.879 31.8385C102.241 33.0065 101.357 33.9289 100.227 34.6021C99.0963 35.2768 97.8212 35.6138 96.4043 35.6138C95.0207 35.6138 93.7929 35.3528 92.715 34.8316C91.639 34.3103 90.7315 33.5824 89.9963 32.6475C89.8343 32.4677 89.754 32.261 89.754 32.0276C89.754 31.7574 89.8794 31.5239 90.13 31.3265C90.3104 31.2002 90.5075 31.1374 90.7234 31.1374C90.8854 31.1374 91.0459 31.1782 91.2079 31.2589C91.3699 31.3397 91.4953 31.4428 91.5836 31.5691C92.1235 32.2518 92.8052 32.7822 93.6305 33.1596C94.4559 33.5373 95.3901 33.7263 96.4314 33.7263C97.4352 33.7263 98.346 33.4786 99.163 32.9849C99.9803 32.4904 100.622 31.7985 101.088 30.908C101.554 30.0186 101.788 28.9986 101.788 27.8482V26.635C101.25 27.6591 100.486 28.4641 99.5009 29.0481C98.5131 29.6321 97.3902 29.9239 96.1338 29.9239C94.7352 29.9239 93.4821 29.6053 92.3789 28.967C91.2746 28.3294 90.4141 27.4389 89.7943 26.2977C89.1742 25.1565 88.8652 23.867 88.8652 22.4285C88.8652 20.972 89.1878 19.6744 89.8343 18.5321C90.4812 17.3905 91.3732 16.5011 92.5127 15.8628C93.6525 15.2252 94.9324 14.9055 96.3493 14.9055C97.7864 14.9055 99.0695 15.2252 100.199 15.8628Z" fill="#173753"/>
<path fill-rule="evenodd" clip-rule="evenodd" d="M108.617 29.4931C108.42 29.2949 108.321 29.0438 108.321 28.7373V16.092C108.321 15.7866 108.42 15.5348 108.617 15.3365C108.814 15.1391 109.067 15.0403 109.372 15.0403C109.676 15.0403 109.924 15.1391 110.112 15.3365C110.3 15.5348 110.395 15.7866 110.395 16.092V28.7373C110.395 29.0438 110.3 29.2949 110.112 29.4931C109.924 29.6906 109.676 29.7893 109.372 29.7893C109.067 29.7893 108.814 29.6906 108.617 29.4931ZM108.308 11.8047C108.029 11.5176 107.89 11.1671 107.89 10.7526C107.89 10.3217 108.034 9.97117 108.321 9.70101C108.608 9.43159 108.958 9.29688 109.372 9.29688C109.767 9.29688 110.107 9.43159 110.395 9.70101C110.682 9.97117 110.826 10.3217 110.826 10.7526C110.826 11.1671 110.682 11.5176 110.395 11.8047C110.107 12.0924 109.756 12.2363 109.344 12.2363C108.931 12.2363 108.587 12.0924 108.308 11.8047Z" fill="#173753"/>
<path fill-rule="evenodd" clip-rule="evenodd" d="M122.72 28.0095C122.899 28.2077 122.989 28.4588 122.989 28.7642C122.989 29.052 122.882 29.2946 122.666 29.4932C122.451 29.6907 122.182 29.7894 121.857 29.7894H121.293C120.34 29.7894 119.488 29.56 118.734 29.1015C117.981 28.6431 117.393 28.0231 116.972 27.2413C116.549 26.459 116.338 25.5737 116.338 24.5856V17.3863H114.589C114.301 17.3863 114.073 17.3012 113.902 17.1294C113.732 16.9594 113.646 16.748 113.646 16.4962C113.646 16.2264 113.732 16.0065 113.902 15.8359C114.073 15.6652 114.301 15.5789 114.589 15.5789H116.338V11.4003C116.338 11.0949 116.434 10.8431 116.621 10.6449C116.81 10.4474 117.057 10.3486 117.362 10.3486C117.667 10.3486 117.917 10.4474 118.116 10.6449C118.314 10.8431 118.412 11.0949 118.412 11.4003V15.5789H121.455C121.74 15.5789 121.969 15.6652 122.14 15.8359C122.31 16.0065 122.397 16.2264 122.397 16.4962C122.397 16.748 122.31 16.9594 122.14 17.1294C121.969 17.3012 121.74 17.3863 121.455 17.3863H118.412V24.5856C118.412 25.5017 118.681 26.2531 119.219 26.8364C119.759 27.4211 120.449 27.7133 121.293 27.7133H122.02C122.307 27.7133 122.539 27.812 122.72 28.0095Z" fill="#173753"/>
<path fill-rule="evenodd" clip-rule="evenodd" d="M135.026 27.3086C135.851 26.8233 136.501 26.1538 136.977 25.3004C137.454 24.4462 137.691 23.4889 137.691 22.4289C137.691 21.3677 137.454 20.4107 136.977 19.5569C136.501 18.7035 135.851 18.0292 135.026 17.5348C134.2 17.04 133.277 16.7933 132.252 16.7933C131.23 16.7933 130.3 17.04 129.467 17.5348C128.631 18.0292 127.976 18.7035 127.502 19.5569C127.025 20.4107 126.788 21.3677 126.788 22.4289C126.788 23.4889 127.025 24.4462 127.502 25.3004C127.976 26.1538 128.631 26.8233 129.467 27.3086C130.3 27.7938 131.23 28.0365 132.252 28.0365C133.277 28.0365 134.2 27.7938 135.026 27.3086ZM136.062 15.8896C137.201 16.5467 138.099 17.4493 138.755 18.5996C139.41 19.7504 139.738 21.0263 139.738 22.4289V28.7644C139.738 29.0521 139.638 29.2951 139.44 29.4934C139.243 29.6908 138.993 29.7896 138.687 29.7896C138.381 29.7896 138.131 29.6949 137.933 29.5066C137.736 29.3175 137.638 29.0705 137.638 28.7644V27.1471C137.009 28.0097 136.21 28.6884 135.241 29.1828C134.272 29.6773 133.205 29.9239 132.037 29.9239C130.673 29.9239 129.44 29.5961 128.336 28.9402C127.231 28.2842 126.361 27.3853 125.724 26.2434C125.087 25.1022 124.768 23.8303 124.768 22.4289C124.768 21.0263 125.096 19.7504 125.751 18.5996C126.406 17.4493 127.303 16.5467 128.443 15.8896C129.582 15.2337 130.854 14.9055 132.252 14.9055C133.652 14.9055 134.922 15.2337 136.062 15.8896Z" fill="#173753"/>
<path fill-rule="evenodd" clip-rule="evenodd" d="M144.515 28.4817C143.825 27.6099 143.479 26.4911 143.479 25.1245V9.75555C143.479 9.45016 143.578 9.20276 143.775 9.01409C143.972 8.82505 144.214 8.73071 144.502 8.73071C144.808 8.73071 145.055 8.82505 145.242 9.01409C145.431 9.20276 145.526 9.45016 145.526 9.75555V25.1245C145.526 25.8979 145.683 26.5271 145.997 27.0123C146.31 27.4976 146.711 27.7402 147.195 27.7402H147.867C148.138 27.7402 148.351 27.8349 148.514 28.0232C148.676 28.2122 148.756 28.4589 148.756 28.7647C148.756 29.0704 148.644 29.3175 148.42 29.5065C148.194 29.6948 147.904 29.7895 147.545 29.7895H147.195C146.099 29.7895 145.207 29.3534 144.515 28.4817Z" fill="#173753"/>
<path fill-rule="evenodd" clip-rule="evenodd" d="M169.243 27.3086C170.069 26.8233 170.72 26.1538 171.197 25.3004C171.671 24.4462 171.91 23.4889 171.91 22.4289C171.91 21.3677 171.671 20.4107 171.197 19.5569C170.72 18.7035 170.069 18.0292 169.243 17.5348C168.418 17.04 167.494 16.7933 166.471 16.7933C165.448 16.7933 164.52 17.04 163.684 17.5348C162.85 18.0292 162.195 18.7035 161.719 19.5569C161.243 20.4107 161.006 21.3677 161.006 22.4289C161.006 23.4889 161.243 24.4462 161.719 25.3004C162.195 26.1538 162.85 26.8233 163.684 27.3086C164.52 27.7938 165.448 28.0365 166.471 28.0365C167.494 28.0365 168.418 27.7938 169.243 27.3086ZM170.281 15.8896C171.42 16.5467 172.318 17.4493 172.973 18.5996C173.628 19.7504 173.955 21.0263 173.955 22.4289V28.7644C173.955 29.0521 173.856 29.2951 173.66 29.4934C173.462 29.6908 173.21 29.7896 172.906 29.7896C172.6 29.7896 172.35 29.6949 172.152 29.5066C171.954 29.3175 171.855 29.0705 171.855 28.7644V27.1471C171.227 28.0097 170.428 28.6884 169.459 29.1828C168.49 29.6773 167.422 29.9239 166.256 29.9239C164.892 29.9239 163.657 29.5961 162.555 28.9402C161.45 28.2842 160.579 27.3853 159.943 26.2434C159.305 25.1022 158.987 23.8303 158.987 22.4289C158.987 21.0263 159.313 19.7504 159.97 18.5996C160.624 17.4493 161.522 16.5467 162.662 15.8896C163.801 15.2337 165.071 14.9055 166.471 14.9055C167.871 14.9055 169.141 15.2337 170.281 15.8896Z" fill="#173753"/>
<path fill-rule="evenodd" clip-rule="evenodd" d="M189.821 15.9843C189.821 16.0922 189.794 16.2178 189.74 16.3617L183.844 29.0881C183.61 29.5561 183.269 29.7896 182.821 29.7896C182.39 29.7896 182.068 29.5561 181.852 29.0881L175.875 16.3884C175.822 16.2805 175.795 16.155 175.795 16.0111C175.795 15.6334 175.992 15.3467 176.386 15.1485C176.512 15.0762 176.655 15.0406 176.817 15.0406C176.996 15.0406 177.163 15.0857 177.316 15.1749C177.468 15.2656 177.579 15.4003 177.651 15.5791L182.821 26.7965L187.936 15.5791C188.008 15.4003 188.125 15.2605 188.287 15.1617C188.447 15.063 188.628 15.0134 188.825 15.0134C188.987 15.0134 189.129 15.0498 189.256 15.1213C189.632 15.3016 189.821 15.5894 189.821 15.9843Z" fill="#173753"/>
<path fill-rule="evenodd" clip-rule="evenodd" d="M195.207 18.0333C194.31 18.8782 193.762 19.9927 193.565 21.3768H203.418C203.275 19.9927 202.772 18.8782 201.911 18.0333C201.049 17.1879 199.946 16.7654 198.599 16.7654C197.236 16.7654 196.105 17.1879 195.207 18.0333ZM202.127 15.836C203.149 16.456 203.943 17.3146 204.509 18.4106C205.074 19.5074 205.357 20.7569 205.357 22.1583C205.357 22.4461 205.266 22.6752 205.088 22.8462C204.909 23.0176 204.675 23.102 204.387 23.102H193.512C193.655 24.5765 194.228 25.7713 195.234 26.6883C196.238 27.6055 197.495 28.064 199.004 28.064C199.649 28.064 200.3 27.9517 200.955 27.7267C201.61 27.5017 202.135 27.2187 202.529 26.8773C202.763 26.6974 203.006 26.6071 203.258 26.6071C203.455 26.6071 203.652 26.6802 203.85 26.823C204.082 27.0388 204.199 27.2814 204.199 27.5512C204.199 27.7854 204.1 27.9921 203.903 28.1719C203.311 28.6748 202.558 29.0933 201.642 29.4254C200.727 29.7584 199.848 29.9239 199.004 29.9239C197.567 29.9239 196.283 29.6053 195.154 28.967C194.023 28.329 193.139 27.4389 192.502 26.2977C191.864 25.1561 191.546 23.867 191.546 22.4285C191.546 20.9716 191.845 19.674 192.447 18.5317C193.049 17.3905 193.884 16.5011 194.952 15.8628C196.02 15.2252 197.236 14.9055 198.599 14.9055C199.928 14.9055 201.104 15.215 202.127 15.836Z" fill="#173753"/>
<path fill-rule="evenodd" clip-rule="evenodd" d="M219.494 15.6869C220.509 16.2265 221.302 17.0131 221.877 18.0464C222.45 19.0808 222.738 20.3156 222.738 21.7541V28.7643C222.738 29.0521 222.639 29.2947 222.442 29.4929C222.245 29.6904 222.002 29.7891 221.715 29.7891C221.409 29.7891 221.159 29.6904 220.962 29.4929C220.764 29.2947 220.666 29.0521 220.666 28.7643V21.7541C220.666 20.1541 220.221 18.9362 219.332 18.1011C218.443 17.2649 217.282 16.8469 215.847 16.8469C214.966 16.8469 214.172 17.0175 213.464 17.3589C212.754 17.701 212.194 18.1727 211.782 18.7747C211.367 19.377 211.162 20.0462 211.162 20.7836V28.7643C211.162 29.0704 211.068 29.3175 210.879 29.5065C210.691 29.6948 210.443 29.7891 210.139 29.7891C209.833 29.7891 209.583 29.6948 209.385 29.5065C209.186 29.3175 209.088 29.0704 209.088 28.7643V16.0922C209.088 15.7864 209.186 15.5346 209.385 15.3364C209.583 15.1389 209.833 15.0402 210.139 15.0402C210.443 15.0402 210.691 15.1389 210.879 15.3364C211.068 15.5346 211.162 15.7864 211.162 16.0922V17.0084C211.753 16.344 212.471 15.8227 213.316 15.4443C214.159 15.067 215.075 14.8787 216.061 14.8787C217.336 14.8787 218.48 15.1481 219.494 15.6869Z" fill="#173753"/>
<path fill-rule="evenodd" clip-rule="evenodd" d="M240.443 15.3229C240.64 15.5123 240.739 15.759 240.739 16.0651V28.7373C240.739 29.0438 240.64 29.2948 240.443 29.493C240.246 29.6905 239.993 29.7893 239.689 29.7893C239.383 29.7893 239.138 29.6905 238.949 29.493C238.76 29.2948 238.667 29.0438 238.667 28.7373V27.8211C238.073 28.4866 237.355 29.007 236.513 29.3851C235.669 29.7625 234.753 29.9508 233.766 29.9508C232.491 29.9508 231.348 29.6813 230.334 29.1425C229.319 28.6029 228.524 27.817 227.951 26.783C227.376 25.7494 227.089 24.5138 227.089 23.0753V16.0651C227.089 15.7773 227.187 15.5347 227.385 15.3365C227.584 15.139 227.826 15.0403 228.113 15.0403C228.417 15.0403 228.668 15.139 228.867 15.3365C229.064 15.5347 229.163 15.7773 229.163 16.0651V23.0753C229.163 24.6753 229.607 25.8932 230.494 26.7283C231.383 27.5645 232.546 27.9826 233.981 27.9826C234.86 27.9826 235.656 27.8119 236.364 27.4705C237.072 27.1295 237.634 26.6575 238.047 26.0548C238.459 25.4524 238.667 24.7829 238.667 24.0458V16.0651C238.667 15.759 238.76 15.5123 238.949 15.3229C239.138 15.1346 239.383 15.0403 239.689 15.0403C239.993 15.0403 240.246 15.1346 240.443 15.3229Z" fill="#173753"/>
<path fill-rule="evenodd" clip-rule="evenodd" d="M248.501 18.0333C247.604 18.8782 247.058 19.9927 246.861 21.3768H256.714C256.57 19.9927 256.067 18.8782 255.205 18.0333C254.345 17.1879 253.24 16.7654 251.895 16.7654C250.53 16.7654 249.399 17.1879 248.501 18.0333ZM255.421 15.836C256.445 16.456 257.238 17.3146 257.803 18.4106C258.37 19.5074 258.652 20.7569 258.652 22.1583C258.652 22.4461 258.562 22.6752 258.383 22.8462C258.203 23.0176 257.969 23.102 257.683 23.102H246.806C246.949 24.5765 247.524 25.7713 248.53 26.6883C249.534 27.6055 250.791 28.064 252.298 28.064C252.945 28.064 253.594 27.9517 254.249 27.7267C254.904 27.5017 255.431 27.2187 255.825 26.8773C256.057 26.6974 256.3 26.6071 256.552 26.6071C256.749 26.6071 256.946 26.6802 257.143 26.823C257.377 27.0388 257.494 27.2814 257.494 27.5512C257.494 27.7854 257.396 27.9921 257.199 28.1719C256.605 28.6748 255.852 29.0933 254.936 29.4254C254.021 29.7584 253.141 29.9239 252.298 29.9239C250.862 29.9239 249.579 29.6053 248.448 28.967C247.317 28.329 246.433 27.4389 245.796 26.2977C245.16 25.1561 244.84 23.867 244.84 22.4285C244.84 20.9716 245.141 19.674 245.743 18.5317C246.344 17.3905 247.178 16.5011 248.246 15.8628C249.314 15.2252 250.53 14.9055 251.895 14.9055C253.222 14.9055 254.398 15.215 255.421 15.836Z" fill="#173753"/>
<path fill-rule="evenodd" clip-rule="evenodd" d="M264.066 29.3575C263.044 28.9802 262.217 28.4505 261.59 27.7671C261.409 27.5512 261.319 27.3453 261.319 27.1471C261.319 26.8417 261.463 26.5719 261.75 26.3377C261.966 26.1762 262.19 26.0951 262.424 26.0951C262.73 26.0951 262.989 26.2214 263.204 26.4724C263.635 26.976 264.205 27.3626 264.915 27.632C265.624 27.9018 266.409 28.0361 267.27 28.0361C268.526 28.0361 269.469 27.821 270.097 27.3893C270.725 26.9577 271.048 26.392 271.066 25.6909C271.066 25.0434 270.752 24.5046 270.124 24.0729C269.495 23.6416 268.499 23.3179 267.136 23.102C265.377 22.815 264.061 22.3165 263.191 21.6059C262.32 20.8956 261.886 20.0378 261.886 19.0306C261.886 17.7187 262.392 16.7027 263.406 15.984C264.421 15.2652 265.691 14.9055 267.216 14.9055C268.401 14.9055 269.433 15.1081 270.312 15.5123C271.191 15.916 271.901 16.4788 272.439 17.1975C272.583 17.4305 272.655 17.6383 272.655 17.8174C272.655 18.1236 272.511 18.3662 272.224 18.5453C272.099 18.6356 271.928 18.68 271.712 18.68C271.335 18.68 271.021 18.5453 270.77 18.2759C269.891 17.269 268.688 16.7654 267.163 16.7654C266.175 16.7654 265.385 16.968 264.793 17.3722C264.202 17.7771 263.904 18.2851 263.904 18.8959C263.904 19.5434 264.183 20.0598 264.74 20.4463C265.296 20.8329 266.282 21.1434 267.701 21.3768C269.62 21.7006 270.994 22.2259 271.819 22.9541C272.645 23.682 273.059 24.5857 273.059 25.6641C273.059 26.4908 272.812 27.2278 272.317 27.8746C271.824 28.5217 271.138 29.0253 270.259 29.3851C269.378 29.7448 268.382 29.9239 267.27 29.9239C266.157 29.9239 265.089 29.7356 264.066 29.3575Z" fill="#173753"/>
<mask id="mask0" mask-type="alpha" maskUnits="userSpaceOnUse" x="0" y="0" width="26" height="36">
<path d="M0 0.367188H25.9419V35.6137H0V0.367188Z" fill="white"/>
</mask>
<g mask="url(#mask0)">
<path fill-rule="evenodd" clip-rule="evenodd" d="M18.3986 25.9284C17.8456 26.9213 17.114 27.6796 16.1637 28.2486C15.221 28.8135 14.1816 29.0851 12.9897 29.0851C11.7942 29.0851 10.7474 28.8098 9.78975 28.2409C8.82803 27.6719 8.09319 26.9173 7.5438 25.9284C6.98671 24.9322 6.71952 23.8314 6.71952 22.5635C6.71952 21.2957 6.98671 20.1952 7.5438 19.195C8.08952 18.2134 8.8207 17.4701 9.77838 16.9122C10.7401 16.351 11.7905 16.0793 12.9897 16.0793C14.6379 16.0793 15.9932 16.5815 17.1327 17.6078C18.2689 18.6301 18.9256 19.9089 19.1485 21.5225C19.1595 21.6602 19.1782 21.7942 19.2115 21.9278C19.2156 22.0394 19.2229 22.2365 19.2229 22.5635C19.2229 23.8314 18.9553 24.9322 18.3986 25.9284ZM25.0104 1.38946C24.3756 0.720303 23.529 0.367188 22.5599 0.367188C21.6136 0.367188 20.771 0.709291 20.1249 1.35606C19.4827 2.00319 19.1448 2.8434 19.1448 3.79152V11.3464C18.8626 11.1717 18.5767 11.0117 18.2799 10.8593C16.5796 9.99306 14.6936 9.55442 12.6705 9.55442C10.3131 9.55442 8.14157 10.1344 6.21484 11.2796C4.29545 12.4208 2.76199 14.0047 1.65954 15.9828C0.557089 17.9532 0 20.1692 0 22.5635C0 24.9652 0.575781 27.1926 1.70425 29.178C2.84409 31.1745 4.42153 32.762 6.39663 33.8999C8.37173 35.0374 10.5876 35.6137 12.9897 35.6137C15.3914 35.6137 17.6081 35.0374 19.5828 33.8999C21.3501 32.885 22.7978 31.5092 23.8966 29.7987C22.7681 27.6239 22.1963 25.2071 22.1963 22.6046C22.1963 19.8234 22.8608 17.247 24.1788 14.9381C24.6871 14.0421 25.2776 13.2203 25.942 12.4656V3.79152C25.942 2.86212 25.6191 2.02925 25.0104 1.38946Z" fill="#173753"/>
</g>
<path fill-rule="evenodd" clip-rule="evenodd" d="M40.4723 28.2596C39.5256 28.8161 38.4843 29.0866 37.2884 29.0866C36.0892 29.0866 35.0377 28.8146 34.0753 28.2552C33.1194 27.6991 32.3882 26.9514 31.8403 25.9695C31.2847 24.9726 31.0146 23.8718 31.0146 22.6039C31.0146 21.3353 31.2847 20.2349 31.8399 19.2394C32.3912 18.2516 33.1267 17.494 34.087 16.9243C35.0465 16.3565 36.094 16.0805 37.2884 16.0805C38.4796 16.0805 39.5168 16.355 40.4591 16.9196C41.4127 17.4907 42.145 18.2494 42.6959 19.2368C43.2522 20.2375 43.5227 21.339 43.5227 22.6039C43.5227 23.8681 43.2518 24.97 42.6973 25.9688C42.1479 26.9529 41.42 27.7021 40.4723 28.2596ZM48.572 15.9876C47.437 13.9944 45.8592 12.4058 43.8815 11.2661L43.8804 11.2653C41.9082 10.13 39.6905 9.55444 37.2884 9.55444C34.8863 9.55444 32.6686 10.13 30.6957 11.2661C28.7177 12.4058 27.1399 13.9944 26.0059 15.9858C24.8738 17.9694 24.2998 20.196 24.2998 22.6039C24.2998 25.0041 24.8576 27.2194 25.9568 29.1846C27.0611 31.1653 28.5949 32.7481 30.5143 33.8882C32.4381 35.0327 34.6093 35.6126 36.9677 35.6126C38.9908 35.6126 40.8772 35.1733 42.5753 34.307C43.0004 34.0901 43.4083 33.8518 43.7979 33.5927C43.9632 33.9201 44.1842 34.2174 44.4587 34.4781C45.099 35.0892 45.9295 35.4122 46.8601 35.4122C47.8086 35.4122 48.6501 35.072 49.2963 34.4248C49.938 33.7795 50.2774 32.9507 50.2774 32.0283V22.6039C50.2774 20.2011 49.7034 17.9749 48.572 15.9876Z" fill="#0064FF"/>
</svg>
