<svg width="74" height="52" viewBox="0 0 74 52" fill="none" xmlns="http://www.w3.org/2000/svg">
<mask id="mask0" mask-type="alpha" maskUnits="userSpaceOnUse" x="0" y="0" width="38" height="52">
<path d="M0 0.535889H37.8714V51.9906H0V0.535889Z" fill="white"/>
</mask>
<g mask="url(#mask0)">
<path fill-rule="evenodd" clip-rule="evenodd" d="M26.8593 37.8514C26.0519 39.3009 24.9839 40.408 23.5966 41.2386C22.2204 42.0633 20.7031 42.4598 18.9631 42.4598C17.2178 42.4598 15.6897 42.0579 14.2916 41.2274C12.8876 40.3968 11.8149 39.2951 11.0128 37.8514C10.1996 36.3971 9.80952 34.7901 9.80952 32.9392C9.80952 31.0884 10.1996 29.4819 11.0128 28.0216C11.8095 26.5888 12.8769 25.5036 14.275 24.6891C15.679 23.8698 17.2124 23.4733 18.9631 23.4733C21.3692 23.4733 23.3478 24.2063 25.0112 25.7046C26.6699 27.197 27.6287 29.0639 27.954 31.4195C27.97 31.6205 27.9973 31.8161 28.046 32.0111C28.0519 32.174 28.0626 32.4618 28.0626 32.9392C28.0626 34.7901 27.672 36.3971 26.8593 37.8514ZM36.5115 2.0282C35.5848 1.05132 34.3489 0.535828 32.9342 0.535828C31.5527 0.535828 30.3226 1.03525 29.3793 1.97943C28.4419 2.92415 27.9486 4.15073 27.9486 5.53486V16.5639C27.5366 16.3088 27.1193 16.0752 26.6859 15.8528C24.2039 14.5882 21.4505 13.9478 18.4971 13.9478C15.0556 13.9478 11.8855 14.7945 9.07277 16.4664C6.27073 18.1324 4.0321 20.4446 2.42269 23.3323C0.813269 26.2088 0 29.4438 0 32.9392C0 36.4454 0.840557 39.6969 2.48796 42.5954C4.15195 45.5099 6.45479 47.8275 9.33815 49.4887C12.2215 51.1493 15.4564 51.9906 18.9631 51.9906C22.4692 51.9906 25.7052 51.1493 28.588 49.4887C31.168 48.007 33.2814 45.9986 34.8855 43.5015C33.2381 40.3266 32.4034 36.7985 32.4034 32.9992C32.4034 28.939 33.3735 25.1778 35.2975 21.8073C36.0396 20.4993 36.9016 19.2995 37.8716 18.1977V5.53486C37.8716 4.17806 37.4002 2.9622 36.5115 2.0282Z" fill="#212833"/>
</g>
<path fill-rule="evenodd" clip-rule="evenodd" d="M59.0835 41.2547C57.7015 42.0671 56.1815 42.462 54.4356 42.462C52.6849 42.462 51.1499 42.0649 49.7449 41.2483C48.3495 40.4365 47.282 39.3449 46.4822 37.9115C45.671 36.4561 45.2767 34.8491 45.2767 32.9982C45.2767 31.1463 45.671 29.5398 46.4816 28.0865C47.2863 26.6445 48.3602 25.5385 49.762 24.7069C51.1627 23.8779 52.6919 23.4749 54.4356 23.4749C56.1745 23.4749 57.6887 23.8757 59.0643 24.6999C60.4565 25.5337 61.5255 26.6413 62.3297 28.0828C63.1419 29.5435 63.5367 31.1516 63.5367 32.9982C63.5367 34.8437 63.1413 36.4523 62.3318 37.9104C61.5298 39.3471 60.4672 40.4407 59.0835 41.2547ZM70.908 23.3393C69.251 20.4296 66.9476 18.1104 64.0605 16.4466L64.0589 16.4455C61.1799 14.7881 57.9423 13.9479 54.4356 13.9479C50.9289 13.9479 47.6914 14.7881 44.8112 16.4466C41.9236 18.1104 39.6202 20.4296 37.9648 23.3367C36.312 26.2324 35.4741 29.483 35.4741 32.9982C35.4741 36.5022 36.2885 39.7361 37.8931 42.6051C39.5052 45.4966 41.7443 47.8072 44.5464 49.4716C47.3548 51.1424 50.5244 51.989 53.9674 51.989C56.9209 51.989 59.6748 51.3476 62.1536 50.083C62.7743 49.7663 63.3698 49.4185 63.9385 49.0402C64.1798 49.5182 64.5025 49.9522 64.9032 50.3327C65.838 51.2249 67.0504 51.6965 68.4089 51.6965C69.7936 51.6965 71.022 51.1997 71.9653 50.255C72.9022 49.313 73.3976 48.103 73.3976 46.7564V32.9982C73.3976 29.4905 72.5597 26.2405 70.908 23.3393Z" fill="#0062FF"/>
</svg>
